<svg width="38" height="38" viewBox="0 0 38 38" fill="none" xmlns="http://www.w3.org/2000/svg">
<g filter="url(#filter0_d_278_1700)">
<path fill-rule="evenodd" clip-rule="evenodd" d="M12 0C7.58172 0 4 3.58172 4 8V22C4 22.1899 4.00662 22.3783 4.01963 22.5648C4.01299 22.5744 4.00645 22.5836 4 22.5927C4 22.9378 4.04261 23.2176 4.12782 23.4321C4.80282 27.167 8.07057 30 12 30H26C30.4183 30 34 26.4183 34 22L34 19.9851L34 8C34 3.58172 30.4183 0 26 0H12ZM34 19.9851C34 20.2986 33.9163 20.5978 33.749 20.8828C33.6095 21.1393 33.3863 21.3388 33.0795 21.4813C32.8563 21.6238 32.4519 21.8517 31.8661 22.1652L30.0251 23.1057C29.3556 23.4192 28.7141 23.7326 28.1004 24.0461C27.5146 24.3596 27.0962 24.5733 26.8452 24.6873C26.2873 24.9438 25.855 25.1148 25.5481 25.2003C25.2692 25.2573 24.8787 25.2858 24.3766 25.2858C23.8466 25.2858 23.3584 25.1861 22.9121 24.9866C22.4937 24.7871 22.145 24.5021 21.8661 24.1316C21.5872 23.7611 21.3919 23.3479 21.2803 22.8919C21.1688 22.4075 21.1827 21.8945 21.3222 21.353C21.3222 20.4411 21.4756 19.6004 21.7824 18.8309C22.1172 18.033 22.4798 17.2778 22.8703 16.5653C23.2887 15.8243 23.6513 15.0976 23.9582 14.3852C24.2929 13.6442 24.4603 12.8605 24.4603 12.0341C23.8466 12.0341 23.1911 12.2336 22.4937 12.6325C21.7964 13.0315 21.0851 13.5587 20.3598 14.2142C19.6625 14.8696 18.9651 15.6106 18.2678 16.4371C17.5983 17.235 16.9568 18.0472 16.3431 18.8737C15.7573 19.6716 15.2413 20.4411 14.795 21.182C14.3766 21.923 14.0558 22.5357 13.8326 23.0202C13.7768 23.0487 13.6374 23.0772 13.4142 23.1057H12.9958C12.5495 23.3337 12.2706 23.3337 12.159 23.1057C12.0753 22.8492 12.0753 22.4645 12.159 21.9515C12.2706 21.4385 12.4379 20.8686 12.6611 20.2416C12.8842 19.5861 13.0934 18.9734 13.2887 18.4034C13.5119 17.805 13.6792 17.3205 13.7908 16.95C13.9024 16.5511 13.9163 16.3516 13.8326 16.3516C13.9163 16.2376 14.0139 16.0523 14.1255 15.7958C14.2371 15.5394 14.3487 15.2686 14.4603 14.9836C14.5718 14.6987 14.6695 14.4422 14.7531 14.2142C14.8368 13.9577 14.8787 13.7582 14.8787 13.6157C14.8787 13.3592 14.781 13.2025 14.5858 13.1455C14.4184 13.06 14.251 13.0173 14.0837 13.0173C13.5816 12.7323 13.0377 12.9033 12.4519 13.5302C11.894 14.1287 11.2803 14.9979 10.6109 16.1378C9.96932 17.2493 9.25802 18.5317 8.47699 19.9851C7.72385 21.41 6.88703 22.7922 5.96653 24.1316C5.32497 24.1316 4.83682 24.0461 4.50209 23.8751C4.33625 23.7904 4.2115 23.6427 4.12782 23.4321C4.07647 23.148 4.04012 22.8586 4.01963 22.5648C4.2426 22.2452 4.57078 21.6703 5.00418 20.8401C5.45049 19.9566 5.95258 18.9877 6.51046 17.9332C7.06834 16.8788 7.65411 15.8101 8.26778 14.7272C8.90934 13.6442 9.50907 12.7323 10.0669 11.9913C10.6527 11.2219 11.1688 10.7089 11.6151 10.4524C12.0893 10.1674 12.4658 10.2957 12.7448 10.8371C13.219 10.5237 13.735 10.2529 14.2929 10.0249C14.8787 9.79694 15.4644 9.68295 16.0502 9.68295C16.4407 9.68295 16.7615 9.81119 17.0126 10.0677C17.2915 10.2957 17.5007 10.5949 17.6402 10.9654C17.8075 11.3074 17.9331 11.6778 18.0167 12.0768C18.1004 12.4473 18.1423 12.775 18.1423 13.06C18.4491 12.8605 18.9512 12.5185 19.6485 12.0341C20.3738 11.5211 21.1409 11.0081 21.9498 10.4952C22.7866 9.98218 23.5955 9.54046 24.3766 9.16998C25.1855 8.771 25.841 8.57151 26.3431 8.57151C26.7894 8.57151 27.166 8.7425 27.4728 9.08448C27.8075 9.39797 27.9749 9.79694 27.9749 10.2814C26.9707 12.7893 26.1757 14.7984 25.59 16.3088C25.0321 17.8192 24.6555 19.0019 24.4603 19.8569C24.2929 20.6833 24.2929 21.2818 24.4603 21.6523C24.6555 21.9942 24.9902 22.265 25.4644 22.4645C26.2176 22.4645 26.9428 22.3362 27.6402 22.0797C28.3375 21.8232 29.0209 21.5383 29.6904 21.2248C30.3877 20.9113 31.0851 20.6263 31.7824 20.3698C32.4798 20.1133 33.219 19.9851 34 19.9851Z" fill="#1B212D"/>
</g>
<defs>
<filter id="filter0_d_278_1700" x="0" y="0" width="38" height="38" filterUnits="userSpaceOnUse" color-interpolation-filters="sRGB">
<feFlood flood-opacity="0" result="BackgroundImageFix"/>
<feColorMatrix in="SourceAlpha" type="matrix" values="0 0 0 0 0 0 0 0 0 0 0 0 0 0 0 0 0 0 127 0" result="hardAlpha"/>
<feOffset dy="4"/>
<feGaussianBlur stdDeviation="2"/>
<feComposite in2="hardAlpha" operator="out"/>
<feColorMatrix type="matrix" values="0 0 0 0 0 0 0 0 0 0 0 0 0 0 0 0 0 0 0.25 0"/>
<feBlend mode="normal" in2="BackgroundImageFix" result="effect1_dropShadow_278_1700"/>
<feBlend mode="normal" in="SourceGraphic" in2="effect1_dropShadow_278_1700" result="shape"/>
</filter>
</defs>
</svg>
