<svg width="18" height="18" viewBox="0 0 18 18" fill="none" xmlns="http://www.w3.org/2000/svg">
<path d="M15.6998 4.68471L10.8998 1.32637C9.59151 0.409706 7.58318 0.459706 6.32487 1.43471L2.14987 4.69304C1.31654 5.34304 0.658203 6.67637 0.658203 7.72633V13.4763C0.658203 15.6013 2.3832 17.3347 4.5082 17.3347H13.4915C15.6165 17.3347 17.3415 15.6097 17.3415 13.4847V7.83466C17.3415 6.70971 16.6165 5.32637 15.6998 4.68471ZM9.62485 14.0013C9.62485 14.343 9.34151 14.6263 8.99985 14.6263C8.65818 14.6263 8.37485 14.343 8.37485 14.0013V11.5013C8.37485 11.1597 8.65818 10.8763 8.99985 10.8763C9.34151 10.8763 9.62485 11.1597 9.62485 11.5013V14.0013Z" fill="#1B212D"/>
</svg>
