<svg width="63" height="21" viewBox="0 0 63 21" fill="none" xmlns="http://www.w3.org/2000/svg">
<path d="M13.292 6.194H13.31V15.5H16.19V1.406H12.32L8.396 10.856L4.4 1.406H0.638V15.5H3.5V6.266H3.518L7.424 15.5H9.368L13.292 6.194ZM21.8222 15.68C23.1002 15.68 24.0542 15.212 24.7022 14.294L24.7382 14.312V15.5H27.3302V9.542C27.3302 7.022 25.6922 5.672 23.1542 5.672C21.0482 5.672 19.5722 6.428 18.7442 7.958L20.8862 9.236C21.3722 8.372 22.0742 7.94 23.0282 7.94C24.0362 7.94 24.5762 8.462 24.5762 9.128C24.5762 9.596 24.3242 9.83 23.8202 9.83H22.8662C21.7862 9.83 20.8862 9.992 20.0042 10.406C19.1402 10.82 18.5822 11.648 18.5822 12.782V12.818C18.5822 13.682 18.8882 14.384 19.5182 14.906C20.1482 15.428 20.9222 15.68 21.8222 15.68ZM22.6322 13.628C21.9122 13.628 21.4082 13.304 21.4082 12.656C21.4082 11.936 22.0562 11.558 22.8662 11.558H24.5582V11.774C24.5582 12.836 23.8382 13.628 22.6322 13.628ZM29.4493 17.552C30.3133 19.388 31.9333 20.306 34.3093 20.306C35.8393 20.306 37.0813 19.892 38.0352 19.046C39.0073 18.2 39.4933 17.03 39.4933 15.536V5.888H36.7393V7.058H36.7033C35.9653 6.176 34.9933 5.744 33.7873 5.744C32.4553 5.744 31.3573 6.23 30.5113 7.22C29.6653 8.192 29.2513 9.326 29.2513 10.604C29.2513 11.972 29.6833 13.124 30.5473 14.042C31.4113 14.96 32.5273 15.428 33.8953 15.428C35.0833 15.428 36.0013 14.996 36.6673 14.15H36.7033V15.608C36.7033 17.102 35.7493 17.858 34.2913 17.858C33.1213 17.858 32.2753 17.318 31.7353 16.238L29.4493 17.552ZM36.7753 10.604C36.7753 12.026 35.7493 12.98 34.4353 12.98C33.0853 12.98 32.0953 12.026 32.0953 10.604C32.0953 9.218 33.1213 8.246 34.4353 8.246C35.7853 8.246 36.7753 9.218 36.7753 10.604ZM44.9228 0.829999H42.0968V15.5H44.9228V0.829999ZM46.9168 10.712C46.9168 12.152 47.4208 13.34 48.4288 14.294C49.4368 15.248 50.6788 15.716 52.1548 15.716C53.6128 15.716 54.8548 15.23 55.8808 14.276C56.9068 13.304 57.4108 12.098 57.4108 10.658C57.4108 9.236 56.9068 8.066 55.8988 7.112C54.8908 6.158 53.6488 5.672 52.1908 5.672C50.7328 5.672 49.4728 6.158 48.4468 7.13C47.4208 8.084 46.9168 9.29 46.9168 10.712ZM49.7968 10.676C49.7968 9.974 50.0308 9.38 50.4808 8.93C50.9308 8.462 51.4888 8.228 52.1548 8.228C52.8208 8.228 53.3968 8.462 53.8468 8.93C54.2968 9.38 54.5308 9.974 54.5308 10.676C54.5308 12.116 53.5228 13.142 52.1728 13.142C51.5068 13.142 50.9308 12.908 50.4808 12.458C50.0308 11.99 49.7968 11.396 49.7968 10.676ZM60.9412 15.716C61.4812 15.716 61.9312 15.518 62.3092 15.14C62.6872 14.762 62.8852 14.294 62.8852 13.772C62.8852 12.692 62.0212 11.81 60.9412 11.81C59.8612 11.81 58.9972 12.692 58.9972 13.772C58.9972 14.294 59.1952 14.762 59.5732 15.14C59.9512 15.518 60.4192 15.716 60.9412 15.716Z" fill="#1B212D"/>
</svg>
