<svg width="16" height="18" viewBox="0 0 16 18" fill="none" xmlns="http://www.w3.org/2000/svg">
<path d="M11.1503 0.666748H4.85033C1.70033 0.666748 0.916992 1.50841 0.916992 4.86675V14.2501C0.916992 16.4667 2.13366 16.9917 3.60866 15.4084L3.61699 15.4001C4.30033 14.6751 5.34199 14.7334 5.93366 15.5251L6.77533 16.6501C7.45033 17.5417 8.54199 17.5417 9.21699 16.6501L10.0587 15.5251C10.6587 14.7251 11.7003 14.6667 12.3837 15.4001C13.867 16.9834 15.0753 16.4584 15.0753 14.2417V4.86675C15.0837 1.50841 14.3003 0.666748 11.1503 0.666748ZM10.292 7.95842H5.70866C5.36699 7.95842 5.08366 7.67508 5.08366 7.33342C5.08366 6.99175 5.36699 6.70842 5.70866 6.70842H10.292C10.6337 6.70842 10.917 6.99175 10.917 7.33342C10.917 7.67508 10.6337 7.95842 10.292 7.95842Z" fill="#929EAE"/>
</svg>
