<svg width="18" height="18" viewBox="0 0 18 18" fill="none" xmlns="http://www.w3.org/2000/svg">
<path d="M12.492 0.666748H5.50866C2.47533 0.666748 0.666992 2.47508 0.666992 5.50841V12.4834C0.666992 15.5251 2.47533 17.3334 5.50866 17.3334H12.4837C15.517 17.3334 17.3253 15.5251 17.3253 12.4917V5.50841C17.3337 2.47508 15.5253 0.666748 12.492 0.666748ZM13.3837 7.30008L11.4587 9.78341C11.217 10.0917 10.8753 10.2917 10.4837 10.3334C10.092 10.3834 9.70866 10.2751 9.40032 10.0334L7.87533 8.83342C7.81699 8.78341 7.75033 8.78341 7.71699 8.79175C7.68366 8.79175 7.62533 8.80842 7.57533 8.87508L5.59199 11.4501C5.46699 11.6084 5.28366 11.6917 5.10033 11.6917C4.96699 11.6917 4.83366 11.6501 4.71699 11.5584C4.44199 11.3501 4.39199 10.9584 4.60033 10.6834L6.58366 8.10842C6.82533 7.80008 7.16699 7.60008 7.55866 7.55008C7.94199 7.50008 8.33366 7.60842 8.64199 7.85008L10.167 9.05008C10.2253 9.10008 10.2837 9.10008 10.3253 9.09175C10.3587 9.09175 10.417 9.07508 10.467 9.00842L12.392 6.52508C12.6003 6.25008 13.0003 6.20008 13.267 6.41675C13.542 6.64175 13.592 7.03341 13.3837 7.30008Z" fill="#929EAE"/>
</svg>
